<svg xmlns="http://www.w3.org/2000/svg"
  width="100%" height="100%" viewBox="0 0 314 176" version="1.1">
  <title>
    Camera
  </title>
  <g stroke="none" stroke-width="1" fill="none" fill-rule="evenodd">
    <g stroke="#000000">
      <g transform="translate(15.000000, 8.000000)" stroke-width="0.5">
        <rect fill="#F1F1E9" x="0.3" y="0.3" width="33.5" height="19.5"/>
        <g transform="translate(1.000000, 0.000000)" stroke-linecap="square">
          <path d="M0.9 0.5L0.9 19.5M3.5 0.5L3.5 19.5M6.2 0.5L6.2 19.5M8.9 0.5L8.9 19.5M11.5 0.5L11.5 19.5M14.2 0.5L14.2 19.5M16.8 0.5L16.8 19.5M19.5 0.5L19.5 19.5M22.1 0.5L22.1 19.5M24.8 0.5L24.8 19.5M27.5 0.5L27.5 19.5M30.1 0.5L30.1 19.5"/>
        </g>
      </g>
      <path d="M12.7 27.1L1.4 41.9 63.6 41.9 52.3 27.1 12.7 27.1ZM260.7 27.1L248.3 41.9 312.7 41.9 300.3 27.1 260.7 27.1Z" stroke-width="0.3" fill="#F1F1E9"/>
      <g transform="translate(273.000000, 0.000000)" stroke-width="0.3">
        <rect fill="#F1F1E9" x="0.1" y="0.1" width="16.8" height="19.8"/>
        <g transform="translate(1.000000, 0.000000)" stroke-linecap="square">
          <path d="M0.4 0.5L0.4 19.5M1.7 0.5L1.7 19.5M3 0.5L3 19.5M4.3 0.5L4.3 19.5M5.6 0.5L5.6 19.5M6.9 0.5L6.9 19.5M8.1 0.5L8.1 19.5M9.4 0.5L9.4 19.5M10.7 0.5L10.7 19.5M12 0.5L12 19.5M13.3 0.5L13.3 19.5M14.6 0.5L14.6 19.5"/>
        </g>
      </g>
      <path d="M272.7 19.4L267.2 27.1 295.8 27.1 290.3 19.4 272.7 19.4Z" stroke-width="0.3" fill="#F1F1E9"/>
      <rect stroke-width="0.3" fill="#F1F1E9" x="128.1" y="3.1" width="138.8" height="62.8" rx="13"/>
      <rect stroke-width="0.3" fill="#F1F1E9" x="0.1" y="33.1" width="313.8" height="140.8" rx="13"/>
      <rect stroke-width="0.3" fill="#F1F1E9" x="85.1" y="12.1" width="32.8" height="7.8" rx="3.9"/>
      <rect stroke-width="0.3" fill="#F1F1E9" x="78.1" y="16.1" width="46.8" height="7.8" rx="3.9"/>
      <rect stroke-width="0.3" fill="#F1F1E9" x="74.6" y="20.4" width="53.8" height="12.8"/>
      <rect stroke-width="0.3" fill="#F1F1E9" x="81.1" y="9.1" width="40.8" height="3.8" rx="1.9"/>
      <rect stroke-width="0.3" fill="#F1F1E9" x="57.1" y="16.1" width="15.8" height="7.8" rx="3.9"/>
      <path d="M60.5 16C60.5 13.8 62.3 12 64.5 12L65.5 12C67.7 12 69.5 13.8 69.5 16M65.5 20L64.5 20" stroke-width="0.3" fill="#F1F1E9"/>
      <rect stroke-width="0.3" fill="#F1F1E9" x="57.1" y="17.4" width="15.8" height="15.8"/>
      <rect fill="#000000" x="0.5" y="58.5" width="313" height="106"/>
    </g>
    <g transform="translate(95.000000, 35.000000)" fill="#FFFFFF" stroke="#000000">
      <circle cx="17.5" cy="23.5" r="17.5"/>
      <rect stroke-width="0.5" x="14.8" y="0.3" width="5.5" height="19.5" rx="2.8"/>
      <circle stroke-width="0.5" cx="17.5" cy="23.5" r="15"/>
      <circle stroke-width="0.5" cx="17.5" cy="23.5" r="10"/>
    </g>
    <g transform="translate(157.000000, 8.000000)" fill="#FFFFFF" stroke="#979797">
      <circle stroke-width="0.5" cx="10.5" cy="10.5" r="10.5"/>
      <circle stroke-width="0.5" cx="10.5" cy="10.5" r="7.5"/>
      <circle stroke-width="0.3" cx="10.5" cy="10.5" r="5"/>
      <g transform="translate(80.000000, 0.000000)">
        <circle stroke-width="0.5" cx="10.5" cy="10.5" r="10.5"/>
        <circle stroke-width="0.5" cx="10.5" cy="10.5" r="7.5"/>
        <circle stroke-width="0.3" cx="10.5" cy="10.5" r="5"/>
      </g>
    </g>
    <g transform="translate(112.000000, 38.000000)">
      <polygon fill="#FFFFFF" transform="translate(22.641389, 108.641389) rotate(-121.000000) translate(-22.641389, -108.641389) " points="22.6 92.1 39.1 125.1 6.1 125.1"/>
      <polygon stroke="#000000" fill="#FFFFFF" points="84 0 107.4 4.1 127.9 16 143.2 34.3 151.3 56.6 151.3 80.4 143.2 102.8 127.9 121 107.4 132.9 84 137 60.6 132.9 40.1 121 24.8 102.8 16.7 80.4 16.7 56.6 24.8 34.3 40.1 16 60.6 4.1"/>
      <circle stroke="#000000" fill="#FFFFFF" cx="84" cy="69" r="61"/>
      <circle stroke="#979797" fill="#FFFFFF" cx="84.5" cy="69.5" r="52.5"/>
      <circle stroke="#979797" fill="#000000" cx="84.5" cy="69.5" r="47.5"/>
      <g transform="translate(7.000000, 104.000000)" stroke="#000000">
        <circle fill="#FFFFFF" cx="9" cy="9" r="9"/>
        <circle fill="#000000" cx="9" cy="9" r="5"/>
      </g>
    </g>
    <g transform="translate(194.000000, 5.000000)" stroke="#000000">
      <rect fill="#FFFFFF" x="0.5" y="0.5" width="34" height="23" rx="5"/>
      <rect fill="#000000" x="3.8" y="4" width="27.5" height="16.5" rx="5"/>
    </g>
  </g>
</svg>
