<svg xmlns="http://www.w3.org/2000/svg"
 width="100%" height="100%" viewBox="0 0 402 369" version="1.1">
   <title>typewriter</title>
   <g stroke="none" stroke-width="1" fill="none" fill-rule="evenodd">
     <g transform="translate(23.000000, 0.000000)" fill="#F1F1E9">
       <rect x="0" y="0" width="357" height="336"/>
       <rect x="0" y="315" width="357" height="54" rx="27"/>
     </g>
     <g stroke="#000000">
       <rect fill="#000000" x="46.5" y="25.5" width="325" height="55"/>
       <g transform="translate(7.000000, 25.000000)" fill="#000000">
         <rect x="0.5" y="0.5" width="11" height="55"/>
       </g>
       <rect stroke-width="2" x="23" y="25" width="17" height="54"/>
       <path d="M23.5 12.5L379.5 12.5M23.5 1.5L379.5 1.5" stroke-width="3" stroke-linecap="square"/>
       <rect fill="#000000" x="0.5" y="37.5" width="11" height="30" rx="5.5"/>
       <g transform="translate(386.000000, 25.000000)" fill="#000000">
         <rect x="0.5" y="0.5" width="11" height="55"/>
         <rect x="4.5" y="0.5" width="11" height="55" rx="5.5"/>
       </g>
     </g>
     <g transform="translate(41.000000, 223.000000)">
       <circle stroke="#000000" fill="#000000" cx="25" cy="16" r="9"/>
       <circle stroke="#000000" fill="#000000" cx="49" cy="17" r="9"/>
       <circle stroke="#000000" fill="#000000" cx="73" cy="17" r="9"/>
       <circle stroke="#000000" fill="#000000" cx="97" cy="17" r="9"/>
       <circle stroke="#000000" fill="#000000" cx="121" cy="17" r="9"/>
       <circle stroke="#000000" fill="#000000" cx="145" cy="17" r="9"/>
       <circle stroke="#000000" fill="#000000" cx="169" cy="18" r="9"/>
       <circle stroke="#000000" fill="#000000" cx="193" cy="18" r="9"/>
       <circle stroke="#000000" fill="#000000" cx="217" cy="18" r="9"/>
       <circle stroke="#000000" fill="#000000" cx="240" cy="18" r="9"/>
       <circle stroke="#000000" fill="#000000" cx="264" cy="18" r="9"/>
       <circle stroke="#000000" fill="#000000" cx="288" cy="18" r="9"/>
       <circle stroke="#000000" fill="#000000" cx="38" cy="42" r="9"/>
       <circle stroke="#000000" fill="#000000" cx="21" cy="59" r="9"/>
       <circle stroke="#000000" fill="#000000" cx="43" cy="67" r="9"/>
       <circle stroke="#000000" fill="#000000" cx="67" cy="67" r="9"/>
       <circle stroke="#000000" fill="#000000" cx="91" cy="67" r="9"/>
       <circle stroke="#000000" fill="#000000" cx="115" cy="67" r="9"/>
       <circle stroke="#000000" fill="#000000" cx="139" cy="67" r="9"/>
       <circle stroke="#000000" fill="#000000" cx="163" cy="68" r="9"/>
       <circle stroke="#000000" fill="#000000" cx="187" cy="68" r="9"/>
       <circle stroke="#000000" fill="#000000" cx="211" cy="68" r="9"/>
       <circle stroke="#000000" fill="#000000" cx="234" cy="68" r="9"/>
       <circle stroke="#000000" fill="#000000" cx="258" cy="68" r="9"/>
       <circle stroke="#000000" fill="#000000" cx="282" cy="68" r="9"/>
       <circle stroke="#000000" fill="#000000" cx="55" cy="89" r="9"/>
       <circle stroke="#000000" fill="#000000" cx="79" cy="89" r="9"/>
       <circle stroke="#000000" fill="#000000" cx="103" cy="89" r="9"/>
       <circle stroke="#000000" fill="#000000" cx="127" cy="89" r="9"/>
       <circle stroke="#000000" fill="#000000" cx="151" cy="89" r="9"/>
       <circle stroke="#000000" fill="#000000" cx="175" cy="90" r="9"/>
       <circle stroke="#000000" fill="#000000" cx="199" cy="90" r="9"/>
       <circle stroke="#000000" fill="#000000" cx="223" cy="90" r="9"/>
       <circle stroke="#000000" fill="#000000" cx="246" cy="90" r="9"/>
       <circle stroke="#000000" fill="#000000" cx="270" cy="90" r="9"/>
       <circle stroke="#000000" fill="#000000" cx="296" cy="92" r="12"/>
       <circle stroke="#000000" fill="#000000" cx="30" cy="90" r="12"/>
       <circle stroke="#000000" fill="#000000" cx="305" cy="68" r="9"/>
       <circle stroke="#000000" fill="#000000" cx="62" cy="43" r="9"/>
       <circle stroke="#000000" fill="#000000" cx="86" cy="44" r="9"/>
       <circle stroke="#000000" fill="#000000" cx="110" cy="44" r="9"/>
       <circle stroke="#000000" fill="#000000" cx="134" cy="44" r="9"/>
       <circle stroke="#000000" fill="#000000" cx="158" cy="44" r="9"/>
       <circle stroke="#000000" fill="#000000" cx="181" cy="44" r="9"/>
       <circle stroke="#000000" fill="#000000" cx="205" cy="44" r="9"/>
       <circle stroke="#000000" fill="#000000" cx="229" cy="44" r="9"/>
       <circle stroke="#000000" fill="#000000" cx="252" cy="44" r="9"/>
       <circle stroke="#000000" fill="#000000" cx="276" cy="45" r="9"/>
       <circle stroke="#000000" fill="#000000" cx="300" cy="44" r="9"/>
       <path d="M44.8 103.5L44.8 103.5C43.9 103.5 43 103.8 42.2 104.3 40.1 105.7 39.6 108.6 41 110.7L44.8 116.3C45.7 117.7 47.3 118.5 48.9 118.5L269.4 118.5C270.9 118.5 272.4 117.8 273.3 116.6 276.7 112.3 278.5 109.1 278.5 107 278.5 105.2 277.1 104.3 273.9 104.3 266.7 104.3 190.3 104 44.8 103.5Z" stroke="#000000" fill="#000000"/>
       <rect stroke="#000000" fill="#000000" x="0.5" y="0.5" width="10" height="23"/>
       <rect stroke="#000000" fill="#000000" x="2.5" y="27.5" width="6" height="10"/>
       <rect stroke="#000000" fill="#000000" x="4.5" y="20.5" width="2" height="10"/>
       <circle stroke="#040404" fill="#010101" cx="318.5" cy="10.5" r="2.5"/>
       <circle stroke="#040404" fill="#010101" cx="318.5" cy="18.5" r="2.5"/>
       <circle stroke="#040404" fill="#010101" cx="318.5" cy="26.5" r="2.5"/>
       <rect stroke="#040404" stroke-width="2" x="313" y="1" width="11" height="35" rx="5"/>
       <rect stroke="#000000" fill="#000000" x="310.5" y="12.5" width="2" height="12"/>
     </g>
     <g transform="translate(37.000000, 102.000000)" stroke="#000000">
       <path d="M34.5 71.5L1.8 90.7 6.6 90.7 37.8 71.5 34.5 71.5ZM46.4 71.5L15.7 90.7 20.8 90.7 50 71.5 46.4 71.5ZM54.8 71.5L27.6 90.7 32.5 90.7 58.3 71.5 54.8 71.5ZM64.7 71.5L39.5 90.7 44.7 90.7 68.5 71.5 64.7 71.5ZM74.1 71.5L52.3 90.7 57.3 90.7 77.8 71.5 74.1 71.5ZM84 71.5L64.2 90.7 69.5 90.7 87.9 71.5 84 71.5ZM93.9 71.5L76.1 90.7 81.7 90.7 98.1 71.5 93.9 71.5ZM103.7 71.5L88.1 90.7 94.1 90.7 108.2 71.5 103.7 71.5ZM112.6 71.5L100.9 90.7 106.2 90.7 116.6 71.5 112.6 71.5ZM124.4 71.5L114.8 90.7 120.5 90.7 128.7 71.5 124.4 71.5ZM132.7 71.5L125.7 90.7 131.2 90.7 136.9 71.5 132.7 71.5ZM144.4 71.5L139.6 90.7 145.8 90.7 149 71.5 144.4 71.5ZM152.4 71.5L150.6 90.7 155.6 90.7 156.2 71.5 152.4 71.5ZM163.5 71.5L164.1 90.7 169.2 90.7 167.3 71.5 163.5 71.5ZM172.6 71.5L175.9 90.7 182 90.7 177.2 71.5 172.6 71.5ZM182.7 71.5L188.3 90.7 193.8 90.7 186.8 71.5 182.7 71.5ZM192.8 71.5L201 90.7 206.6 90.7 197 71.5 192.8 71.5ZM203.8 71.5L214.2 90.7 219.5 90.7 207.8 71.5 203.8 71.5ZM212 71.5L226.2 90.7 232.2 90.7 216.5 71.5 212 71.5ZM223.1 71.5L239.4 90.7 245 90.7 227.2 71.5 223.1 71.5ZM232.2 71.5L250.6 90.7 255.8 90.7 236.1 71.5 232.2 71.5ZM240.3 71.5L260.7 90.7 265.7 90.7 243.9 71.5 240.3 71.5ZM252.4 71.5L276.2 90.7 281.4 90.7 256.2 71.5 252.4 71.5ZM261.5 71.5L287.3 90.7 292.2 90.7 265 71.5 261.5 71.5ZM271.7 71.5L300.9 90.7 305.9 90.7 275.3 71.5 271.7 71.5ZM281.8 71.5L313 90.7 317.8 90.7 285.2 71.5 281.8 71.5ZM278.2 70.3L200 0M270.4 70.3L198 0M260.7 70.3L195 0M251.9 70.3L192 0M243.1 70.3L189 0M232.3 70.3L185 0M221.6 70.3L181 0M213.8 70.3L179 0M203 70.3L175 0M193.2 70.3L171 0M184.5 70.3L169 0M173.7 70.3L164 0M164.9 70.3L162 0M155 70.3L157.9 0M145 70.3L154.7 0M136 70.3L151.5 0M126 70.3L148.2 0M116 70.3L144 0M107 70.3L141.8 0M97 70.3L137.6 0M86 70.3L133.3 0M78 70.3L132.1 0M69 70.3L128.9 0M57 70.3L123.7 0M48 70.3L121.4 0M39 70.3L118.2 0" fill="#000000"/>
     </g>
     <g transform="translate(57.000000, 231.000000)" font-family="AmericanTypewriter, American Typewriter" font-size="12" font-weight="normal">
       <text fill="#AAAAAA">
         <tspan x="204" y="85">
         </tspan>
       </text>
       <text fill="#AAAAAA">
         <tspan x="190.3" y="63">
           K
         </tspan>
       </text>
       <text fill="#AAAAAA">
         <tspan x="142.3" y="63">
           H
         </tspan>
       </text>
       <text fill="#AAAAAA">
         <tspan x="118.7" y="62">
           G
         </tspan>
       </text>
       <text fill="#AAAAAA">
         <tspan x="95.3" y="62">
           F
         </tspan>
       </text>
       <text fill="#AAAAAA">
         <tspan x="70.6" y="62">
           D
         </tspan>
       </text>
       <text fill="#AAAAAA">
         <tspan x="47.3" y="62">
           S
         </tspan>
       </text>
       <text fill="#AAAAAA">
         <tspan x="35.3" y="84">
           Z
         </tspan>
       </text>
       <text fill="#AAAAAA">
         <tspan x="58.3" y="84">
           X
         </tspan>
       </text>
       <text fill="#AAAAAA">
         <tspan x="106.6" y="84">
           V
         </tspan>
       </text>
       <text fill="#AAAAAA">
         <tspan x="130.8" y="84">
           B
         </tspan>
       </text>
       <text fill="#AAAAAA">
         <tspan x="227" y="85">
           >
         </tspan>
       </text>
       <text fill="#AAAAAA">
         <tspan x="250.4" y="85">
           ?
         </tspan>
       </text>
       <text fill="#AAAAAA">
         <tspan x="18.1" y="37">
           Q
         </tspan>
       </text>
       <text fill="#AAAAAA">
         <tspan x="5.2" y="11">
           1
         </tspan>
       </text>
       <text fill="#AAAAAA">
         <tspan x="29.2" y="12">
           2
         </tspan>
       </text>
       <text fill="#AAAAAA">
         <tspan x="53.2" y="12">
           3
         </tspan>
       </text>
       <text fill="#AAAAAA">
         <tspan x="77.2" y="12">
           4
         </tspan>
       </text>
       <text fill="#AAAAAA">
         <tspan x="101.2" y="12">
           5
         </tspan>
       </text>
       <text fill="#AAAAAA">
         <tspan x="125.2" y="12">
           6
         </tspan>
       </text>
       <text fill="#AAAAAA">
         <tspan x="149.2" y="13">
           7
         </tspan>
       </text>
       <text fill="#AAAAAA">
         <tspan x="173.2" y="13">
           8
         </tspan>
       </text>
       <text fill="#AAAAAA">
         <tspan x="197.2" y="13">
           9
         </tspan>
       </text>
       <text fill="#AAAAAA">
         <tspan x="220.2" y="13">
           0
         </tspan>
       </text>
       <text fill="#AAAAAA">
         <tspan x="246.1" y="12">
           -
         </tspan>
       </text>
       <text fill="#AAAAAA">
         <tspan x="269" y="13">
           +
         </tspan>
       </text>
       <text fill="#AAAAAA">
         <tspan x="40.4" y="38">
           W
         </tspan>
       </text>
       <text fill="#AAAAAA">
         <tspan x="66" y="39">
           E
         </tspan>
       </text>
       <text fill="#AAAAAA">
         <tspan x="89.6" y="39">
           R
         </tspan>
       </text>
       <text fill="#AAAAAA">
         <tspan x="114.2" y="39">
           T
         </tspan>
       </text>
       <text fill="#AAAAAA">
         <tspan x="137.6" y="39">
           Y
         </tspan>
       </text>
       <text fill="#AAAAAA">
         <tspan x="160.7" y="39">
           U
         </tspan>
       </text>
       <text fill="#AAAAAA">
         <tspan x="232.2" y="39">
           P
         </tspan>
       </text>
       <text fill="#AAAAAA">
         <tspan x="256.4" y="39">
           [
         </tspan>
       </text>
       <text fill="#AAAAAA">
         <tspan x="282.4" y="38">
           ]
         </tspan>
       </text>
       <text fill="#AAAAAA">
         <tspan x="240.4" y="61">
           ;
         </tspan>
       </text>
       <text fill="#AAAAAA">
         <tspan x="264.5" y="64">
           ‘
         </tspan>
       </text>
       <text fill="#FFFFFF">
         <tspan x="22.5" y="61">
           A
         </tspan>
       </text>
       <text fill="#FFFFFF">
         <tspan x="83.2" y="84">
           C
         </tspan>
       </text>
       <text fill="#FFFFFF">
         <tspan x="186.7" y="39">
           I
         </tspan>
       </text>
       <text fill="#FFFFFF">
         <tspan x="209.1" y="39">
           O
         </tspan>
       </text>
       <text fill="#FFFFFF">
         <tspan x="177.3" y="85">
           M
         </tspan>
       </text>
       <text fill="#FFFFFF">
         <tspan x="167.3" y="62">
           J
         </tspan>
       </text>
       <text fill="#FFFFFF">
         <tspan x="215.2" y="62">
           L
         </tspan>
       </text>
       <text fill="#FFFFFF">
         <tspan x="154.4" y="85">
           N
         </tspan>
       </text>
     </g>
    </g>
 </svg>
